<svg width="25" height="32" viewBox="0 0 25 32" fill="none" xmlns="http://www.w3.org/2000/svg">
<g clip-path="url(#clip0_3248_837)">
<path fill-rule="evenodd" clip-rule="evenodd" d="M5.5 16C5.5 16.8284 4.82843 17.5 4 17.5C3.17157 17.5 2.5 16.8284 2.5 16C2.5 15.1716 3.17157 14.5 4 14.5C4.82843 14.5 5.5 15.1716 5.5 16ZM4 8.5C3.17157 8.5 2.5 9.17157 2.5 10C2.5 10.8284 3.17157 11.5 4 11.5C4.82843 11.5 5.5 10.8284 5.5 10C5.5 9.17157 4.82843 8.5 4 8.5ZM4 20.5C3.17157 20.5 2.5 21.1716 2.5 22C2.5 22.8284 3.17157 23.5 4 23.5C4.82843 23.5 5.5 22.8284 5.5 22C5.5 21.1716 4.82843 20.5 4 20.5ZM20.5 14.5H8.5C8.08579 14.5 7.75 14.8358 7.75 15.25V16.75C7.75 17.1642 8.08579 17.5 8.5 17.5H20.5C20.9142 17.5 21.25 17.1642 21.25 16.75V15.25C21.25 14.8358 20.9142 14.5 20.5 14.5ZM20.5 8.5H8.5C8.08579 8.5 7.75 8.83579 7.75 9.25V10.75C7.75 11.1642 8.08579 11.5 8.5 11.5H20.5C20.9142 11.5 21.25 11.1642 21.25 10.75V9.25C21.25 8.83579 20.9142 8.5 20.5 8.5ZM20.5 20.5H8.5C8.08579 20.5 7.75 20.8358 7.75 21.25V22.75C7.75 23.1642 8.08579 23.5 8.5 23.5H20.5C20.9142 23.5 21.25 23.1642 21.25 22.75V21.25C21.25 20.8358 20.9142 20.5 20.5 20.5Z" fill="#141414"/>
</g>
<defs>
<clipPath id="clip0_3248_837">
<rect width="24" height="24" fill="white" transform="translate(0.25 4)"/>
</clipPath>
</defs>
</svg>
