<svg width="40" height="40" viewBox="0 0 40 40" fill="none" xmlns="http://www.w3.org/2000/svg">
<rect width="40" height="40" rx="8" fill="#F2F2F2"/>
<g clip-path="url(#clip0_3260_2761)">
<path fill-rule="evenodd" clip-rule="evenodd" d="M31.1956 18.9688L29.8831 15.6875C29.6553 15.1194 29.1039 14.7479 28.4919 14.75H25.25V14C25.25 13.5858 24.9142 13.25 24.5 13.25H10.25C9.42157 13.25 8.75 13.9216 8.75 14.75V25.25C8.75 26.0784 9.42157 26.75 10.25 26.75H11.8438C12.1836 28.0774 13.3797 29.0059 14.75 29.0059C16.1203 29.0059 17.3164 28.0774 17.6562 26.75H22.3438C22.6836 28.0774 23.8797 29.0059 25.25 29.0059C26.6203 29.0059 27.8164 28.0774 28.1562 26.75H29.75C30.5784 26.75 31.25 26.0784 31.25 25.25V19.25C31.2503 19.1536 31.2318 19.0581 31.1956 18.9688ZM25.25 16.25H28.4919L29.3919 18.5H25.25V16.25ZM10.25 14.75H23.75V20.75H10.25V14.75ZM14.75 27.5C13.9216 27.5 13.25 26.8284 13.25 26C13.25 25.1716 13.9216 24.5 14.75 24.5C15.5784 24.5 16.25 25.1716 16.25 26C16.25 26.8284 15.5784 27.5 14.75 27.5ZM22.3438 25.25H17.6562C17.3164 23.9226 16.1203 22.9941 14.75 22.9941C13.3797 22.9941 12.1836 23.9226 11.8438 25.25H10.25V22.25H23.75V23.4041C23.0534 23.8067 22.547 24.4715 22.3438 25.25ZM25.25 27.5C24.4216 27.5 23.75 26.8284 23.75 26C23.75 25.1716 24.4216 24.5 25.25 24.5C26.0784 24.5 26.75 25.1716 26.75 26C26.75 26.8284 26.0784 27.5 25.25 27.5ZM29.75 25.25H28.1562C27.8124 23.9261 26.6179 23.0013 25.25 23V20H29.75V25.25Z" fill="#141414"/>
</g>
<defs>
<clipPath id="clip0_3260_2761">
<rect width="24" height="24" fill="white" transform="translate(8 8)"/>
</clipPath>
</defs>
</svg>
